<?xml version="1.0" encoding="UTF-8"?>
<!DOCTYPE svg PUBLIC "-//W3C//DTD SVG 1.1//EN" "http://www.w3.org/Graphics/SVG/1.1/DTD/svg11.dtd">
<svg xmlns="http://www.w3.org/2000/svg" version="1.1" width="850px" height="220px" style="shape-rendering:geometricPrecision; text-rendering:geometricPrecision; image-rendering:optimizeQuality; fill-rule:evenodd; clip-rule:evenodd" xmlns:xlink="http://www.w3.org/1999/xlink">
<g><path style="opacity:0.919" fill="#fe0500" d="M 332.5,47.5 C 334.288,47.2148 335.955,47.5481 337.5,48.5C 340.53,55.0297 344.863,60.5297 350.5,65C 356.514,65.2399 362.514,65.2399 368.5,65C 371.576,65.911 373.909,67.7443 375.5,70.5C 372.28,72.6029 369.28,74.9362 366.5,77.5C 368.362,81.3911 370.362,85.2245 372.5,89C 370.89,92.2206 369.557,95.554 368.5,99C 371.132,105.958 372.299,113.124 372,120.5C 367.477,129.713 360.977,137.213 352.5,143C 358.061,151.956 363.227,161.122 368,170.5C 374.387,162.446 380.387,154.112 386,145.5C 388.276,142.936 390.276,143.27 392,146.5C 392.667,149.5 392.667,152.5 392,155.5C 388.516,165.809 385.016,176.143 381.5,186.5C 384.264,189.51 383.597,191.676 379.5,193C 377.833,193.667 376.167,193.667 374.5,193C 359.855,182.692 349.355,169.192 343,152.5C 333.5,160.667 324,168.833 314.5,177C 305.253,176.926 300.253,172.092 299.5,162.5C 299.977,161.522 300.643,160.689 301.5,160C 300.643,159.311 299.977,158.478 299.5,157.5C 303.181,135.575 305.681,113.575 307,91.5C 310.15,79.3811 314.484,67.7145 320,56.5C 322.713,51.2602 326.88,48.2602 332.5,47.5 Z M 330.5,56.5 C 332.086,63.3307 332.419,70.3307 331.5,77.5C 320.853,83.0811 319.686,81.0811 328,71.5C 327.021,66.2485 327.854,61.2485 330.5,56.5 Z M 341.5,68.5 C 343.476,69.4271 343.809,70.7605 342.5,72.5C 341.571,71.3112 341.238,69.9778 341.5,68.5 Z M 328.5,87.5 C 329.833,87.5 331.167,87.5 332.5,87.5C 330.53,93.703 329.697,100.036 330,106.5C 331.5,108 333,109.5 334.5,111C 333.196,111.804 332.529,112.971 332.5,114.5C 334.5,122.5 336.5,130.5 338.5,138.5C 338.392,139.442 338.059,140.275 337.5,141C 330.373,146.459 323.539,152.292 317,158.5C 315.982,155.361 315.149,152.195 314.5,149C 316.248,134.999 317.081,121.166 317,107.5C 317.537,98.7387 321.37,92.0721 328.5,87.5 Z M 349.5,92.5 C 348.833,95.1667 347.167,96.8333 344.5,97.5C 345.833,95.5 347.5,93.8333 349.5,92.5 Z M 356.5,102.5 C 359.677,113.813 356.844,123.48 348,131.5C 344.024,124.76 342.191,117.593 342.5,110C 347.387,107.726 352.054,105.226 356.5,102.5 Z"/></g>
<g><path style="opacity:0.919" fill="#fe0500" d="M 508.5,48.5 C 511.85,48.335 515.183,48.5017 518.5,49C 521.219,51.3822 523.553,54.0488 525.5,57C 519.38,65.397 513.88,74.2303 509,83.5C 509.128,86.4856 509.128,89.4856 509,92.5C 505.333,95.1667 501.667,95.1667 498,92.5C 494.524,99.118 493.691,106.118 495.5,113.5C 501.196,108.642 507.53,104.808 514.5,102C 518.71,100.98 522.377,101.98 525.5,105C 526.045,110.849 526.045,116.683 525.5,122.5C 528.136,129.018 528.803,135.685 527.5,142.5C 531.71,142.737 535.544,144.07 539,146.5C 539.667,149.5 539.667,152.5 539,155.5C 532.217,162.99 524.05,168.657 514.5,172.5C 513.416,171.335 512.583,170.002 512,168.5C 510.229,169.304 508.729,170.471 507.5,172C 505.559,172.743 503.726,172.576 502,171.5C 500.167,168.5 498.333,165.5 496.5,162.5C 498.359,159.981 500.359,159.981 502.5,162.5C 504.248,157.006 505.914,151.506 507.5,146C 503.166,145.1 498.832,144.266 494.5,143.5C 494.703,145.39 494.037,146.89 492.5,148C 494.817,154.787 494.984,161.621 493,168.5C 484.761,172.583 478.428,170.583 474,162.5C 473.501,166.486 473.334,170.486 473.5,174.5C 472.325,174.281 471.325,174.614 470.5,175.5C 469.907,177.382 469.24,179.215 468.5,181C 466.167,181.667 463.833,181.667 461.5,181C 455.333,174.833 449.167,168.667 443,162.5C 442.667,168.5 442.333,174.5 442,180.5C 441.743,184.377 440.743,188.043 439,191.5C 433.918,192.637 428.751,192.804 423.5,192C 421.13,189.498 419.797,186.498 419.5,183C 425.549,163.307 431.216,143.474 436.5,123.5C 436.244,122.311 435.911,121.144 435.5,120C 437.15,109.925 437.983,99.7584 438,89.5C 438.689,88.6433 439.522,87.9767 440.5,87.5C 444.205,91.7432 448.871,93.5765 454.5,93C 455.528,90.2393 455.528,87.4059 454.5,84.5C 455.832,79.5242 456.665,74.5242 457,69.5C 451.833,74.6667 446.667,79.8333 441.5,85C 435.144,85.3985 428.811,85.0651 422.5,84C 420.003,83.5883 418.003,82.4216 416.5,80.5C 431.701,68.3041 448.201,57.9707 466,49.5C 470.833,52.4971 473.333,56.8305 473.5,62.5C 470.432,69.6538 467.599,76.9871 465,84.5C 464.762,88.8479 465.095,93.1812 466,97.5C 469.398,89.0329 474.065,81.3662 480,74.5C 489.396,65.5985 498.896,56.9318 508.5,48.5 Z M 495.5,72.5 C 496.043,72.56 496.376,72.8933 496.5,73.5C 489.659,81.5208 485.159,90.8541 483,101.5C 478.167,119.644 475.167,137.978 474,156.5C 472.166,143.338 469.833,130.338 467,117.5C 472.003,110.493 475.67,102.826 478,94.5C 484.047,87.2918 489.88,79.9585 495.5,72.5 Z M 453.5,105.5 C 455.135,109.926 455.635,114.593 455,119.5C 452.333,122.167 449.667,124.833 447,127.5C 446.097,119.128 448.264,111.795 453.5,105.5 Z M 511.5,113.5 C 512.5,113.5 513.5,113.5 514.5,113.5C 512.675,121.133 511.008,128.8 509.5,136.5C 503.751,135.813 498.084,134.647 492.5,133C 490.433,127.588 491.433,122.921 495.5,119C 500.74,116.534 506.073,114.7 511.5,113.5 Z M 455.5,127.5 C 456.586,127.62 457.253,128.287 457.5,129.5C 456.126,139.113 455.459,148.779 455.5,158.5C 444.122,158.013 438.789,152.18 439.5,141C 439.494,136.764 439.994,132.598 441,128.5C 443.035,138.014 447.369,139.014 454,131.5C 454.41,130.099 454.91,128.766 455.5,127.5 Z"/></g>
<g><path style="opacity:0.918" fill="#fe0500" d="M 115.5,54.5 C 121.103,53.2423 125.437,54.909 128.5,59.5C 117.38,72.9082 106.38,86.4082 95.5,100C 104.286,96.9495 112.953,93.2828 121.5,89C 122.784,88.3162 123.951,88.4829 125,89.5C 125.79,92.634 125.457,95.634 124,98.5C 119.963,103.102 115.129,106.602 109.5,109C 107.961,112.544 105.294,114.544 101.5,115C 103.731,116.147 106.065,117.147 108.5,118C 109.591,120.064 109.758,122.231 109,124.5C 105.984,127.349 103.15,130.349 100.5,133.5C 100.833,133.833 101.167,134.167 101.5,134.5C 109.725,130.65 118.225,128.65 127,128.5C 127.601,130.137 128.101,131.803 128.5,133.5C 126.018,141.056 125.018,148.723 125.5,156.5C 124.569,162.133 122.569,167.3 119.5,172C 115.359,172.126 111.359,172.292 107.5,172.5C 101.137,171.487 95.8037,168.653 91.5,164C 92.5505,162.615 93.8839,161.615 95.5,161C 100.5,160.667 105.5,160.333 110.5,160C 111,159.5 111.5,159 112,158.5C 114.786,151.028 116.453,143.361 117,135.5C 110.742,139.878 103.909,143.045 96.5,145C 100.04,145.329 101.206,147.162 100,150.5C 95.286,155.442 89.786,159.275 83.5,162C 77.3592,164.991 71.0258,167.491 64.5,169.5C 61.0224,168.422 57.5224,167.422 54,166.5C 46.5593,176.276 38.0593,185.109 28.5,193C 27.1667,193.667 25.8333,193.667 24.5,193C 23.0931,188.464 23.2597,183.964 25,179.5C 36.3614,163.638 47.5281,147.638 58.5,131.5C 52.2096,130.594 46.2096,128.761 40.5,126C 38.9926,125.163 38.4926,123.996 39,122.5C 50.0427,116.229 61.5427,110.896 73.5,106.5C 77.5,101.167 81.5,95.8333 85.5,90.5C 77.5385,86.0993 73.2051,79.266 72.5,70C 73.5289,68.3016 75.0289,67.4683 77,67.5C 79.8505,68.6738 82.6838,70.0072 85.5,71.5C 96.5263,67.4355 106.526,61.7688 115.5,54.5 Z M 101.5,70.5 C 100.191,73.7777 98.3578,76.7777 96,79.5C 95.8944,75.415 97.7278,72.415 101.5,70.5 Z M 82.5,119.5 C 83.7733,120.077 83.7733,120.743 82.5,121.5C 81.537,121.03 81.537,120.363 82.5,119.5 Z M 76.5,127.5 C 79.9491,129.117 83.6157,130.284 87.5,131C 84.9681,134.702 82.6348,138.535 80.5,142.5C 81.9124,146.048 84.5791,147.881 88.5,148C 77.3702,150.598 66.8702,154.765 57,160.5C 59.76,155.017 63.0933,149.684 67,144.5C 70.1908,138.779 73.3575,133.112 76.5,127.5 Z"/></g>
<g><path style="opacity:0.838" fill="#fe0500" d="M 227.5,55.5 C 232.71,57.5097 235.21,61.1764 235,66.5C 221.154,111.665 194.987,147.832 156.5,175C 153.673,176.623 150.673,177.79 147.5,178.5C 146.479,177.998 146.312,177.332 147,176.5C 172.978,153.866 195.311,128.199 214,99.5C 219.759,89.7266 224.259,79.3933 227.5,68.5C 225.555,63.9918 225.555,59.6584 227.5,55.5 Z"/></g>
<g><path style="opacity:0.907" fill="#fe0500" d="M 646.5,60.5 C 650.381,61.7739 654.048,63.6072 657.5,66C 662.787,67.1608 668.121,67.9941 673.5,68.5C 673.664,71.1873 673.497,73.854 673,76.5C 669.643,80.3562 666.476,84.3562 663.5,88.5C 669.091,88.2638 673.591,90.2638 677,94.5C 677.72,96.1124 677.554,97.6124 676.5,99C 664.469,106.679 651.469,112.179 637.5,115.5C 636.068,115.267 635.568,114.6 636,113.5C 641.263,108.235 647.096,103.735 653.5,100C 653,99.8333 652.5,99.6667 652,99.5C 643.403,104.214 634.903,109.047 626.5,114C 629.167,116 631.833,118 634.5,120C 638.029,120.622 641.529,120.455 645,119.5C 647.799,119.82 650.299,120.82 652.5,122.5C 653.66,126.459 653.827,130.459 653,134.5C 650.124,140.423 646.624,145.923 642.5,151C 633.301,156.494 627.135,153.994 624,143.5C 616.085,155.33 609.752,167.997 605,181.5C 601.5,185 598,188.5 594.5,192C 591.518,192.498 588.518,192.665 585.5,192.5C 590.181,182.629 594.181,172.463 597.5,162C 590.211,162.786 586.044,159.619 585,152.5C 583.838,137.829 584.671,123.329 587.5,109C 586.167,108.333 584.833,108.333 583.5,109C 582.047,114.139 578.713,115.806 573.5,114C 570.113,111.998 568.613,109.165 569,105.5C 571.884,102.315 575.051,99.4816 578.5,97C 589.148,97.0929 599.481,95.0929 609.5,91C 603.5,91.3333 597.5,91.6667 591.5,92C 593.716,88.8789 596.716,86.7122 600.5,85.5C 601.635,83.2933 602.301,80.9599 602.5,78.5C 599.136,79.1272 597.136,77.7939 596.5,74.5C 596.931,72.2339 598.264,70.7339 600.5,70C 608.603,67.0381 616.937,65.7048 625.5,66C 626.729,67.5292 628.229,68.6959 630,69.5C 630.333,71.5 630.667,73.5 631,75.5C 636.062,70.2694 641.229,65.2694 646.5,60.5 Z M 627.5,76.5 C 629.407,78.5972 631.241,80.9306 633,83.5C 639.928,80.9988 646.761,79.3321 653.5,78.5C 645.043,89.8189 633.876,94.1523 620,91.5C 618.739,91.7591 617.739,92.4258 617,93.5C 618.368,89.5063 617.202,86.3397 613.5,84C 617.288,79.6091 621.955,77.1091 627.5,76.5 Z M 617.5,95.5 C 618.94,99.5758 621.94,101.742 626.5,102C 622.244,105.045 618.077,108.212 614,111.5C 614.138,114.777 615.971,116.111 619.5,115.5C 620.032,125.969 615.032,131.302 604.5,131.5C 604.461,134.81 605.794,137.476 608.5,139.5C 606.361,145.112 603.694,150.446 600.5,155.5C 600.167,154.833 599.833,154.167 599.5,153.5C 599.1,141.843 599.6,130.177 601,118.5C 603.476,113.837 604.143,108.837 603,103.5C 601.933,102.809 600.766,102.309 599.5,102C 605.167,101.667 610.833,101.333 616.5,101C 617.406,99.3005 617.739,97.4672 617.5,95.5 Z M 635.5,131.5 C 636.5,131.5 637.5,131.5 638.5,131.5C 637.428,135.756 635.261,139.422 632,142.5C 630.437,141.275 629.27,139.775 628.5,138C 630.665,135.669 632.999,133.502 635.5,131.5 Z"/></g>
<g><path style="opacity:0.875" fill="#fe0500" d="M 224.5,118.5 C 234.472,132.654 245.805,145.82 258.5,158C 263.228,161.726 268.228,165.059 273.5,168C 263.884,169.487 254.217,170.154 244.5,170C 243.667,169.167 242.833,168.333 242,167.5C 234.875,151.625 229.042,135.292 224.5,118.5 Z"/></g>
<g><path style="opacity:0.894" fill="#fe0500" d="M 577.5,119.5 C 579.467,119.261 581.301,119.594 583,120.5C 583.867,124.956 583.534,129.289 582,133.5C 574.167,142 566.333,150.5 558.5,159C 553.589,159.423 551.255,157.089 551.5,152C 551.656,148.183 552.822,144.683 555,141.5C 561.81,133.186 569.31,125.853 577.5,119.5 Z"/></g>
<g><path style="opacity:0.539" fill="#fe0500" d="M 136.5,180.5 C 142.193,179.616 143.193,180.782 139.5,184C 138.552,184.483 137.552,184.649 136.5,184.5C 136.5,183.167 136.5,181.833 136.5,180.5 Z"/></g>
</svg>
