<?xml version="1.0" encoding="utf-8"?>
<!-- Generator: Adobe Illustrator 22.0.0, SVG Export Plug-In . SVG Version: 6.00 Build 0)  -->
<svg version="1.1" xmlns="http://www.w3.org/2000/svg" xmlns:xlink="http://www.w3.org/1999/xlink" x="0px" y="0px"
	 viewBox="0 0 600 600" style="enable-background:new 0 0 600 600;" xml:space="preserve">
<style type="text/css">
	.st0{fill:#875D45;}
	.st1{fill:#FFDDCA;}
	.st2{opacity:0.25;fill:#DD7F50;}
	.st3{fill:#111111;}
	.st4{fill:#775843;}
	.st5{fill:#444444;}
	.st6{fill:#9ECCC3;}
	.st7{fill:#C6DBD7;}
	.st8{fill:#727272;}
	.st9{opacity:0.5;}
	.st10{opacity:0.5;fill:#DD7F50;}
	.st11{fill:#C6C983;}
	.st12{fill:#FFF9F8;}
	.st13{fill:#CC4E42;}
	.st14{fill:#999955;}
	.st15{fill:#353230;}
	.st16{fill:#5B5B5B;}
	.st17{fill:#E57C25;}
	.st18{fill:#AF3C37;}
	.st19{fill:#C65F36;}
	.st20{fill:#AA8A6A;}
	.st21{fill:#82664D;}
	.st22{fill:#5B4635;}
	.st23{fill:#E8CDB3;}
	.st24{fill:#303030;}
	.st25{fill:#B7875C;}
	.st26{fill:#BA5C27;}
	.st27{fill:#D67747;}
	.st28{fill:#586D6B;}
	.st29{fill:#C69430;}
	.st30{fill:#993230;}
	.st31{fill:#F7BD8D;}
	.st32{fill:#CE8F5F;}
	.st33{fill:#E5B53E;}
	.st34{fill:#D8A535;}
	.st35{fill:#4C4A48;}
	.st36{fill:#CAE5DE;}
	.st37{fill:#557499;}
	.st38{fill:#7C4D27;}
	.st39{fill:#68401B;}
	.st40{fill:#B7B7B7;}
	.st41{fill:#89562C;}
	.st42{fill:#214D68;}
	.st43{fill:#CEA94D;}
	.st44{fill:#395287;}
	.st45{fill:#DEDFE0;}
	.st46{fill:#526E9E;}
	.st47{fill:#BABABA;}
	.st48{fill:#E0A053;}
	.st49{fill:#777776;}
	.st50{fill:#BC803F;}
	.st51{fill:#F7C8B0;}
	.st52{fill:#343B4F;}
	.st53{fill:#4C4538;}
	.st54{fill:#777F96;}
	.st55{fill:#545B75;}
	.st56{fill:#383944;}
	.st57{fill:#EAEAEA;}
	.st58{opacity:0.25;}
	.st59{fill:#FF3B3B;}
	.st60{opacity:0.25;fill:#FF3B3B;}
	.st61{fill:#7C3C28;}
	.st62{fill:#E26D5D;}
	.st63{fill:#FFF4D9;}
	.st64{fill:#C14736;}
	.st65{fill:#D35742;}
	.st66{fill:#FFD55F;}
	.st67{fill:#363F59;}
	.st68{fill:#DBA11F;}
	.st69{fill:#6D382D;}
	.st70{fill:#475D93;}
	.st71{fill:#DDB4AF;}
	.st72{fill:#DB8079;}
	.st73{fill:#A07618;}
	.st74{fill:#F9C6B9;}
	.st75{fill:#FFFFFF;}
	.st76{fill:#7BAAA4;}
	.st77{fill:#D0EFEB;}
	.st78{fill:#B27557;}
	.st79{fill:#EF9A89;}
	.st80{fill:#473A2C;}
	.st81{fill:#E2B442;}
	.st82{fill:#EFC66A;}
	.st83{fill:#D19120;}
	.st84{fill:#F7D5BF;}
	.st85{fill:#675093;}
	.st86{fill:#A185D6;}
	.st87{fill:#FFF3E1;}
	.st88{fill:#DD7F50;}
	.st89{fill:#3B5C66;}
	.st90{fill:#57787F;}
	.st91{fill:#CC9040;}
	.st92{fill:#DD9F45;}
	.st93{fill:#EAAD5C;}
	.st94{fill:#C6528F;}
	.st95{fill:#EFD770;}
	.st96{fill:#5675C1;}
	.st97{fill:#B77234;}
	.st98{fill:#604F31;}
	.st99{fill:#A87D38;}
	.st100{fill:#3D3221;}
	.st101{fill:#D17442;}
	.st102{fill:#E8C285;}
	.st103{opacity:0.74;}
	.st104{fill:#EDA351;}
	.st105{fill:#68532F;}
	.st106{fill:#DDB78A;}
	.st107{fill:#AF7337;}
	.st108{fill:#EA8D39;}
	.st109{fill:#A33823;}
	.st110{fill:#BC4B3C;}
</style>
<g id="Businessman">
	<g>
		<g>
			<path class="st0" d="M209.2,218c0,0-9.8-53.5,0-68.9c9.8-15.4,21.5-9,21.5-9s1.1-18.1,23.4-31.6c22.2-13.6,110.8-17,134.5,20
				c12.8,19.9,3.6,97.2,1.6,100.6S217.8,231.2,209.2,218z"/>
		</g>
		<g>
			<g>
				<path class="st1" d="M436.6,415.2l-136.1,20.6l-143.2-19.6c0,0,10.3-34,22.7-39.1c12.4-5.1,83.2-18,83.2-18l0.8-22.3l1-28.1h71
					l1,27.6l0.8,22.7c0,0,67.6,9.1,80,14.2C430.1,378.6,436.6,415.2,436.6,415.2z"/>
			</g>
			<g>
				<path class="st2" d="M336.9,336.5c-13.3,7-26.5,11.3-36.9,11.3c-10.2,0-23-4.1-36-10.9l1-28.1h71L336.9,336.5z"/>
			</g>
		</g>
		<g>
			<path class="st1" d="M375.8,181.3c-11-37.9-53.7-45.6-75.8-45.6c-22.1,0-64.8,7.7-75.8,45.6c-6.6,22.8-11.8,103.6,8.9,122
				c20.7,18.4,48.4,32,66.9,32s46.2-13.6,66.9-32C387.6,285,382.4,204.1,375.8,181.3z"/>
		</g>
		<g>
			<g>
				<g>
					<g>
						<ellipse class="st3" cx="256.7" cy="228.4" rx="7.2" ry="8.6"/>
					</g>
				</g>
				<g>
					<path class="st3" d="M243.6,210.4c3.1-0.5,2.7-2.6,13.5-3.3c4.5-0.3,8.8,1.1,9.3,0c0.5-1.1-0.1-2.8-1.1-3.2
						c-0.9-0.4-9.9-0.4-14.7,0.7C245.9,205.6,241.8,210.6,243.6,210.4z"/>
				</g>
			</g>
			<g>
				<g>
					<g>
						<ellipse class="st3" cx="343.3" cy="228.4" rx="7.2" ry="8.6"/>
					</g>
				</g>
				<g>
					<path class="st3" d="M356.4,210.4c-3.1-0.5-2.7-2.6-13.5-3.3c-4.5-0.3-8.8,1.1-9.3,0c-0.5-1.1,0.1-2.8,1.1-3.2
						c0.9-0.4,9.9-0.4,14.7,0.7C354.1,205.6,358.2,210.6,356.4,210.4z"/>
				</g>
			</g>
		</g>
		<g>
			<g>
				<path class="st1" d="M224.5,216.8c-6.4-6.2-15.7-5.5-22.5-1.3c-6.8,4.2-6.2,21.6-0.6,27.5c5.6,5.9,17.4,7.5,22.2,4.7
					C228.3,245,226.3,218.5,224.5,216.8z"/>
			</g>
			<g>
				<path class="st1" d="M375.5,216.8c6.4-6.2,15.7-5.5,22.5-1.3c6.8,4.2,6.2,21.6,0.6,27.5c-5.6,5.9-17.4,7.5-22.2,4.7
					C371.7,245,373.7,218.5,375.5,216.8z"/>
			</g>
		</g>
		<g>
			<path class="st4" d="M251,252.4c-6.6,0-13.1-0.8-16.1-3.2c-9.5-7.6-7.4-22.2-6.5-26.5c0.4-1.7,2.3-10.3,6.1-11.3l0,0
				c6.9-1.9,38.8-4.2,47.2,0.1c5.5,2.9,4.1,18.9,3.1,22.5l-0.1,0.5c-1,3.7-3.2,12.2-15.8,16C266.9,251.3,258.9,252.4,251,252.4z
				 M235.5,215.1c-1,0.6-3.5,5.6-4.1,13c-0.4,4.8-0.2,13.5,5.8,18.4c4.9,3.9,26.6,2.1,30.6,0.8c10.6-3.2,12.4-10.1,13.3-13.4
				l0.2-0.6c1.3-4.8,1.1-17-1.3-18.3C273.2,211.4,242.6,213.2,235.5,215.1z M235.5,215.1L235.5,215.1L235.5,215.1z"/>
		</g>
		<g>
			<path class="st4" d="M349,252.4c-7.9,0-16-1.1-17.9-1.7c-12.5-3.8-14.8-12.4-15.8-16l-0.1-0.5c-1-3.6-2.4-19.6,3.1-22.5
				c8.4-4.4,40.2-2,47.2-0.1l0,0c3.8,1,5.7,9.6,6.1,11.3c0.9,4.3,3.1,18.8-6.5,26.5C362.1,251.7,355.6,252.4,349,252.4z
				 M337.5,212.9c-7.7,0-14.7,0.6-17.5,2c-2.4,1.2-2.6,13.5-1.3,18.3l0.2,0.6c0.9,3.3,2.7,10.2,13.3,13.4c4.1,1.2,25.7,3.1,30.6-0.8
				c6-4.8,6.2-13.6,5.8-18.4c-0.6-7.3-3.2-12.3-4.1-13C360.3,214,348.3,212.9,337.5,212.9z"/>
		</g>
		<g>
			<path class="st4" d="M316.2,220.2c-19.6-5.2-31.4-0.2-31.5-0.1l-1.5-3.4c0.5-0.2,13-5.7,34-0.1L316.2,220.2z"/>
		</g>
		<g>
			
				<rect x="224.2" y="207.1" transform="matrix(0.6389 -0.7693 0.7693 0.6389 -83.0768 251.2533)" class="st4" width="3.7" height="14.1"/>
		</g>
		<g>
			
				<rect x="366.9" y="212.3" transform="matrix(0.7695 -0.6386 0.6386 0.7695 -50.5584 288.1504)" class="st4" width="14.1" height="3.7"/>
		</g>
		<g>
			<path class="st0" d="M216.2,201.1c0,0-2.2,12.3,5.5,13c6.5,0.6,14.4-48.7,14.5-51.6c0,0,8.7-0.6,18.6-3.8
				c9.9-3.2,54.4-20,83.6-7.1c29.2,12.9,28.2,21.1,31.4,32c2.5,8.7,5.8,39.9,13.7,26.8c8-13.1-13.6-67.2-34.5-74.7
				c-20.9-7.4-87.8-5.4-99.6,3.2c-11.8,8.5-29,27.4-31.2,36.8C216.2,185.2,216.2,201.1,216.2,201.1z"/>
		</g>
		<g>
			<path class="st5" d="M428.2,377.9c-15.8-11.7-84.8-19.4-84.8-19.4l-7.3,2.5L300,382.5L263.9,361l-7.3-2.5c0,0-69,7.7-84.8,19.4
				c-17.9,13.3-58.5,166.2-58.5,166.2H300h186.6C486.6,544.2,446.1,391.2,428.2,377.9z"/>
		</g>
		<g>
			<polygon class="st6" points="304.7,397.8 300.1,397.8 295.4,397.8 279.4,544.2 300.1,544.2 320.7,544.2 			"/>
		</g>
		<g>
			<path class="st7" d="M299.9,382.5l-15.6,5.6c0,0,8.1,10.1,9.7,12.3c1.6,2.3,5.9,1.6,5.9,1.6s4.2,0.6,5.9-1.6
				c1.6-2.3,9.7-12.3,9.7-12.3L299.9,382.5z"/>
		</g>
		<g>
			<path class="st8" d="M263.3,350.4c2.8,0.2,35.3,30.7,36.7,32.2c1.5,1.5-23.2,12.3-27.6,11.8c-4.4-0.6-21.5-21-23.8-25.6
				C246.2,364,256.9,349.9,263.3,350.4z"/>
		</g>
		<g>
			<path class="st8" d="M336.7,350.4c-2.8,0.2-35.3,30.7-36.7,32.2c-1.5,1.5,23.2,12.3,27.6,11.8c4.4-0.6,21.5-21,23.8-25.6
				C353.8,364,343.1,349.9,336.7,350.4z"/>
		</g>
		<g>
			<path class="st3" d="M297.1,289.1c-2.2-1.2,11.9-3.5,14.2-7.3c2.3-3.8,1.4,3.7-3.3,5.8S299.7,290.5,297.1,289.1z"/>
		</g>
		<g class="st9">
			<path class="st10" d="M300,237c-3.1,0-11.6,3.7-11.3,7.9c0.3,4.1,5.5,13.8,11.3,13.8c6.5,0,11.1-9.7,11.3-13.8
				C311.6,240.8,303.1,237,300,237z"/>
		</g>
	</g>
</g>
<g id="Boy_with_Headphone">
</g>
<g id="Man_With_Earphone">
</g>
<g id="Long_Hair_Man">
</g>
<g id="Hipster_Boy">
</g>
<g id="Beach_Boy">
</g>
<g id="Old_Man_with_Hat">
</g>
<g id="Casual_Boy">
</g>
<g id="Old_Man_with_Glasses">
</g>
<g id="Man_with_Hoodie">
</g>
<g id="Girl_with_Hair_Bun">
</g>
<g id="Businesswoman">
</g>
<g id="Girl_with_Hat">
</g>
<g id="Gilr_with_Hijab">
</g>
<g id="Classy_Woman">
</g>
<g id="Old_Woman">
</g>
<g id="Woman_with_Pink_Short_Hair">
</g>
<g id="Hispter_Girl">
</g>
<g id="Girl_with_Short_Blonde_Hair">
</g>
<g id="Girl_with_Long_Curly_Hair">
</g>
</svg>
